<svg xmlns="http://www.w3.org/2000/svg" width="512" height="512"><path fill="#FFF" d="M125.81 76l-30 90h28.38l30-90zM497 76h-15V61a15 15 0 1 0-30 0v15H185.81l-30 90H512V91a15 15 0 0 0-15-15zM45 76a15 15 0 0 0-15 15c0 8.28-6.74 15-15 15a15 15 0 0 0-15 15v45h64.18l30-90H45zM0 196v15a15 15 0 0 0 15 15c8.26 0 15 6.72 15.15 12.88L5.24 414.63C1.38 441.68 22.27 466 49.6 466h59a45.15 45.15 0 0 0 44.65-39.29L163.6 346H225c24.81 0 45-20.19 45-45v-45h167a15 15 0 0 0 13.42-8.3l25.85-51.7H0zm180 120c-16.55 0-30-13.46-30-30s13.45-30 30-30h1c-4.13 13.24-4.87 27.42-1.23 41.07 1.8 6.8 4.83 13.02 8.38 18.93H180zm60-15c0 7.13-5.1 12.83-11.77 14.35a44.2 44.2 0 0 1-19.49-25.97 44.12 44.12 0 0 1 4.64-33.38H240v45z"/></svg>