<svg xmlns="http://www.w3.org/2000/svg" width="512" height="512" viewBox="0 0 438.54 438.54"><path fill="#FFF" d="M427.4 19.7c-7.8-3.23-14.45-1.9-19.98 4l-37.11 36.83a221.6 221.6 0 0 0-69.81-44.68A215.1 215.1 0 0 0 219.27 0c-29.7 0-58.05 5.81-85.08 17.42-27.03 11.61-50.35 27.21-69.95 46.82-19.6 19.6-35.21 42.92-46.82 69.95A213.36 213.36 0 0 0 0 219.27c0 29.69 5.8 58.05 17.42 85.08 11.61 27.03 27.21 50.35 46.82 69.95 19.6 19.6 42.92 35.2 69.95 46.82a213.33 213.33 0 0 0 85.08 17.42c32.74 0 63.87-6.9 93.36-20.7a214.36 214.36 0 0 0 75.38-58.39 9.38 9.38 0 0 0 2.14-6.42 7.91 7.91 0 0 0-2.71-5.85l-39.11-39.4a10.99 10.99 0 0 0-7.14-2.57c-3.04.38-5.23 1.53-6.57 3.43a143.36 143.36 0 0 1-51.1 41.98 143.99 143.99 0 0 1-64.24 14.84c-19.8 0-38.68-3.86-56.67-11.57-17.99-7.7-33.55-18.12-46.68-31.26-13.13-13.13-23.55-28.69-31.26-46.68a142.38 142.38 0 0 1-11.57-56.67c0-19.8 3.86-38.7 11.57-56.68 7.7-17.98 18.12-33.54 31.26-46.67 13.13-13.14 28.69-23.56 46.68-31.27a142.4 142.4 0 0 1 56.67-11.56c38.26 0 71.48 13.04 99.65 39.11l-39.41 39.4c-5.9 5.71-7.23 12.28-4 19.7 3.24 7.61 8.85 11.42 16.85 11.42h127.9c4.96 0 9.24-1.8 12.85-5.42a17.57 17.57 0 0 0 5.42-12.85V36.55c0-8-3.7-13.6-11.13-16.85z"/></svg>